<?xml version="1.0" encoding="UTF-8" standalone="no"?>
<!-- Generator: Adobe Illustrator 19.0.0, SVG Export Plug-In . SVG Version: 6.00 Build 0)  -->

<svg
   version="1.1"
   id="Layer_1"
   x="0px"
   y="0px"
   viewBox="0 0 485.6 485.6"
   style="enable-background:new 0 0 485.6 485.6;"
   xml:space="preserve"
   sodipodi:docname="search.svg"
   inkscape:version="1.2.1 (8a69933317, 2022-10-28, custom)"
   xmlns:inkscape="http://www.inkscape.org/namespaces/inkscape"
   xmlns:sodipodi="http://sodipodi.sourceforge.net/DTD/sodipodi-0.dtd"
   xmlns="http://www.w3.org/2000/svg"
   xmlns:svg="http://www.w3.org/2000/svg"><defs
   id="defs1471" /><sodipodi:namedview
   id="namedview1469"
   pagecolor="#ffffff"
   bordercolor="#666666"
   borderopacity="1.0"
   inkscape:showpageshadow="2"
   inkscape:pageopacity="0.0"
   inkscape:pagecheckerboard="0"
   inkscape:deskcolor="#d1d1d1"
   showgrid="false"
   inkscape:zoom="1.6721582"
   inkscape:cx="242.8"
   inkscape:cy="242.8"
   inkscape:window-width="1920"
   inkscape:window-height="1015"
   inkscape:window-x="0"
   inkscape:window-y="0"
   inkscape:window-maximized="1"
   inkscape:current-layer="g1436" />
<g
   id="g1436">
	
<path
   style="enable-background:new 0 0 485.6 485.6;fill:#E64C3D"
   d="M447.5,477.85l30.3-30.3c4-4,4-10.4,0-14.4l-149.2-149.2l-44.7,44.7l149.2,149.2    C437.1,481.85,443.5,481.85,447.5,477.85z"
   id="path1428" /><path
   style="enable-background:new 0 0 485.6 485.6;fill:#ffffff;fill-opacity:1"
   d="M163.4,67.05c-53.2,0-96.5,43.3-96.5,96.5c0,5,4.1,9.1,9.1,9.1s9.1-4.1,9.1-9.1    c0-43.2,35.1-78.3,78.3-78.3c5,0,9.1-4.1,9.1-9.1C172.5,71.05,168.4,67.05,163.4,67.05z"
   id="path1430" /><path
   style="enable-background:new 0 0 485.6 485.6;fill:#ffffff;fill-opacity:1"
   d="M335,277.55c-3.5-3.5-9.3-3.5-12.8,0l-15.9,15.9l-21.1-21.1c25.9-28.9,41.7-67.1,41.7-108.9    c0-90.1-73.3-163.4-163.4-163.4S0,73.35,0,163.45s73.3,163.4,163.4,163.4c41.8,0,79.9-15.8,108.9-41.7l21.1,21.1l-15.9,15.9    c-1.7,1.7-2.7,4-2.7,6.4s1,4.7,2.7,6.4l141.9,141.9c5.6,5.6,13,8.7,20.9,8.7s15.3-3.1,20.9-8.7l15.7-15.7c5.6-5.6,8.7-13,8.7-20.9    s-3.1-15.3-8.7-20.9L335,277.55z M18.2,163.45c0-80.1,65.2-145.3,145.3-145.3s145.3,65.2,145.3,145.3s-65.2,145.3-145.3,145.3    S18.2,243.55,18.2,163.45z M464.1,448.45l-15.7,15.7c-2.2,2.2-5,3.4-8.1,3.4s-5.9-1.2-8.1-3.4l-135.5-135.5l31.9-31.9l135.5,135.5    c2.2,2.2,3.4,5,3.4,8.1S466.2,446.35,464.1,448.45z"
   id="path1432" /></g>















</svg>
