<?xml version="1.0" encoding="UTF-8" standalone="no"?>
<!-- Created with Inkscape (http://www.inkscape.org/) -->

<svg
   width="200mm"
   height="200mm"
   viewBox="0 0 200 200"
   version="1.1"
   id="svg1"
   xml:space="preserve"
   inkscape:version="1.3.2 (091e20ef0f, 2023-11-25)"
   sodipodi:docname="icon.svg"
   xmlns:inkscape="http://www.inkscape.org/namespaces/inkscape"
   xmlns:sodipodi="http://sodipodi.sourceforge.net/DTD/sodipodi-0.dtd"
   xmlns="http://www.w3.org/2000/svg"
   xmlns:svg="http://www.w3.org/2000/svg"><sodipodi:namedview
     id="namedview1"
     pagecolor="#ffffff"
     bordercolor="#000000"
     borderopacity="0.25"
     inkscape:showpageshadow="2"
     inkscape:pageopacity="0.0"
     inkscape:pagecheckerboard="0"
     inkscape:deskcolor="#d1d1d1"
     inkscape:document-units="mm"
     inkscape:zoom="1.0167041"
     inkscape:cx="415.55848"
     inkscape:cy="413.09955"
     inkscape:window-width="1920"
     inkscape:window-height="1080"
     inkscape:window-x="1920"
     inkscape:window-y="0"
     inkscape:window-maximized="1"
     inkscape:current-layer="layer1" /><defs
     id="defs1" /><g
     inkscape:label="Layer 1"
     inkscape:groupmode="layer"
     id="layer1"><g
       id="g1"
       transform="matrix(0.36134874,0,0,0.36134874,6.5840207,6.7798328)"><polyline
         style="fill:#eac36e"
         points="248.735,101.782 221.389,74.437 156.651,139.176 183.995,166.521 291.231,273.757   318.577,301.102 383.315,236.364 355.971,209.018 "
         id="polyline1" /><rect
         x="194.161"
         y="113.565"
         transform="matrix(-0.7071,-0.7071,0.7071,-0.7071,328.1274,511.439)"
         style="fill:#fcd577"
         width="151.651"
         height="148.394"
         id="rect1" /><rect
         x="155.14101"
         y="207.757"
         transform="matrix(-0.7071,-0.7071,0.7071,-0.7071,233.933,550.4419)"
         style="fill:#eac36e"
         width="151.651"
         height="38.028999"
         id="rect2" /><g
         id="g3">
	<path
   style="fill:#fcd577"
   d="m 136.56,159.269 -30.344,-30.344 c -7.315,-7.315 -7.315,-19.175 0,-26.49 l 78.443,-78.443 c 7.315,-7.315 19.175,-7.315 26.49,0 l 30.344,30.344 z"
   id="path2" />
	<path
   style="fill:#fcd577"
   d="m 328.832,351.54 -30.344,-30.344 104.932,-104.932 30.344,30.344 c 7.315,7.315 7.315,19.175 0,26.49 l -78.443,78.443 c -7.314,7.314 -19.174,7.314 -26.489,-10e-4 z"
   id="path3" />
</g><g
         id="g5">
	<path
   style="fill:#eac36e"
   d="m 156.866,138.965 -20.311,20.299 -29.628,-29.628 c -7.713,-7.701 -7.713,-20.198 0,-27.913 l 20.299,-20.298 c -7.701,7.701 -7.701,20.198 0,27.9 z"
   id="path4" />
	<path
   style="fill:#eac36e"
   d="m 376.332,330.531 -20.299,20.299 c -7.713,7.713 -20.211,7.713 -27.913,0 l -29.628,-29.628 20.299,-20.311 29.64,29.64 c 7.703,7.702 20.201,7.702 27.901,0 z"
   id="path5" />
</g><path
         style="fill:#fcd577"
         d="M 242.318,265.028 222.595,284.751 64.889,442.444 c -8.365,8.365 -21.926,8.365 -30.279,0 L 15.313,423.147 c -8.365,-8.353 -8.365,-21.915 0,-30.279 l 157.693,-157.706 19.723,-19.723 z"
         id="path6" /><rect
         x="193.72301"
         y="215.02499"
         transform="matrix(-0.7071,0.7071,-0.7071,-0.7071,531.353,280.0844)"
         style="fill:#eac36e"
         width="27.892"
         height="70.127998"
         id="rect6" /><path
         style="fill:#4ebfed"
         d="m 454.998,492.793 h 48.207 v -21.758 c 0,-15.991 -12.964,-28.955 -28.955,-28.955 H 267.326 c -15.991,0 -28.955,12.964 -28.955,28.955 v 21.758 H 421.19"
         id="path7" /><path
         style="fill:#3ba4bc"
         d="m 304.898,442.08 h -37.571 c -15.991,0 -28.955,12.964 -28.955,28.955 v 21.758 h 37.571 v -21.758 c 0,-15.991 12.962,-28.955 28.955,-28.955 z"
         id="path8" /><path
         d="m 264.719,300.5 c 1.74,1.741 4.023,2.612 6.304,2.612 2.281,0 4.563,-0.87 6.304,-2.612 l 13.788,-13.788 14.737,14.737 -13.788,13.788 c -3.482,3.482 -3.482,9.126 0,12.607 l 30.344,30.344 c 5.389,5.389 12.469,8.084 19.548,8.084 7.08,0 14.16,-2.695 19.549,-8.084 l 78.443,-78.443 c 10.779,-10.779 10.779,-28.318 0,-39.097 l -30.344,-30.344 c -3.482,-3.482 -9.127,-3.482 -12.607,0 l -13.798,13.798 -14.737,-14.737 13.798,-13.798 c 3.457,-3.457 3.485,-9.053 0.063,-12.544 l -13.881,-14.162 c -3.446,-3.515 -9.091,-3.572 -12.607,-0.126 -3.516,3.446 -3.572,9.091 -0.126,12.607 l 7.703,7.858 -92.387,92.387 -94.63,-94.63 92.337,-92.337 62.641,62.387 c 3.489,3.475 9.133,3.464 12.607,-0.025 3.475,-3.489 3.464,-9.134 -0.025,-12.607 L 275.01,75.709 c -3.484,-3.47 -9.12,-3.464 -12.595,0.013 L 248.617,89.519 233.88,74.782 247.678,60.984 c 1.672,-1.671 2.612,-3.939 2.612,-6.304 0,-2.365 -0.939,-4.632 -2.612,-6.304 L 217.334,18.031 c -10.779,-10.78 -28.318,-10.779 -39.097,0 L 99.793,96.476 c -10.779,10.779 -10.779,28.318 0,39.097 l 30.344,30.344 c 1.74,1.741 4.023,2.612 6.304,2.612 2.281,0 4.563,-0.87 6.304,-2.612 l 13.788,-13.788 14.737,14.737 -13.788,13.788 c -3.482,3.482 -3.482,9.126 0,12.607 l 22.523,22.523 -39.118,39.118 c -3.482,3.482 -3.482,9.127 0,12.607 3.482,3.482 9.127,3.482 12.607,0 l 39.118,-39.118 36.975,36.975 L 58.468,436.49 c -2.361,2.361 -5.5,3.661 -8.84,3.661 -3.339,0 -6.478,-1.3 -8.84,-3.661 L 21.493,417.194 c -2.361,-2.362 -3.662,-5.501 -3.662,-8.84 0,-3.339 1.3,-6.478 3.662,-8.84 L 130.018,290.989 c 3.482,-3.482 3.482,-9.126 0,-12.607 -3.482,-3.482 -9.127,-3.482 -12.607,0 L 8.884,386.906 C 3.155,392.634 0,400.251 0,408.353 c 0,8.102 3.155,15.719 8.884,21.447 l 19.296,19.296 c 5.914,5.914 13.681,8.87 21.447,8.87 7.768,0 15.535,-2.956 21.447,-8.87 L 242.195,277.975 Z m 138.582,-71.283 24.039,24.039 c 3.828,3.828 3.828,10.055 0,13.881 l -78.443,78.443 c -3.828,3.826 -10.054,3.828 -13.881,0 l -24.04,-24.04 z m -32.713,7.491 -52.131,52.13 -14.734,-14.734 52.131,-52.131 z M 136.44,147.004 112.4,122.965 c -3.828,-3.828 -3.828,-10.055 0,-13.881 l 78.443,-78.443 c 1.914,-1.914 4.428,-2.871 6.941,-2.871 2.514,0 5.027,0.957 6.941,2.871 l 24.041,24.039 z m 32.699,-7.482 52.131,-52.131 14.737,14.737 -52.131,52.131 z"
         id="path9" /><path
         d="M 474.13,433.508 H 267.206 c -20.882,0 -37.87,16.989 -37.87,37.87 v 21.758 c 0,4.924 3.992,8.915 8.915,8.915 H 421.07 c 4.924,0 8.915,-3.992 8.915,-8.915 0,-4.923 -3.992,-8.915 -8.915,-8.915 H 247.166 v -12.843 c 0,-11.05 8.99,-20.04 20.04,-20.04 H 474.13 c 11.05,0 20.04,8.99 20.04,20.04 v 12.843 h -39.292 c -4.924,0 -8.915,3.992 -8.915,8.915 0,4.923 3.992,8.915 8.915,8.915 h 48.207 c 4.924,0 8.915,-3.992 8.915,-8.915 v -21.758 c 0,-20.881 -16.989,-37.87 -37.87,-37.87 z"
         id="path10" /></g></g></svg>
